<mxfile host="app.diagrams.net" modified="2020-09-07T06:49:53.125Z" agent="5.0 (Windows NT 6.1; WOW64) AppleWebKit/537.36 (KHTML, like Gecko) Chrome/83.0.4103.116 Safari/537.36" etag="RzGKr7mhOKhXPlzqlTKZ" version="13.6.6" type="github">
  <diagram id="kgpKYQtTHZ0yAKxKKP6v" name="Page-1">
    <mxGraphModel dx="981" dy="548" grid="1" gridSize="10" guides="1" tooltips="1" connect="1" arrows="1" fold="1" page="1" pageScale="1" pageWidth="850" pageHeight="1100" math="0" shadow="0">
      <root>
        <mxCell id="0" />
        <mxCell id="1" parent="0" />
        <mxCell id="h8jRNUJWw59du8lOgMdZ-2" value="在csb控制台注册服务" style="rounded=0;whiteSpace=wrap;html=1;" vertex="1" parent="1">
          <mxGeometry x="120" y="80" width="120" height="60" as="geometry" />
        </mxCell>
        <mxCell id="h8jRNUJWw59du8lOgMdZ-3" value="" style="shape=flexArrow;endArrow=classic;html=1;" edge="1" parent="1">
          <mxGeometry width="50" height="50" relative="1" as="geometry">
            <mxPoint x="240" y="109.66" as="sourcePoint" />
            <mxPoint x="310" y="109.66" as="targetPoint" />
          </mxGeometry>
        </mxCell>
        <mxCell id="h8jRNUJWw59du8lOgMdZ-4" value="端点指定为：http:内网ip:port/接收接口的uri" style="rounded=0;whiteSpace=wrap;html=1;" vertex="1" parent="1">
          <mxGeometry x="310" y="80" width="120" height="60" as="geometry" />
        </mxCell>
        <mxCell id="h8jRNUJWw59du8lOgMdZ-5" value="" style="shape=flexArrow;endArrow=classic;html=1;" edge="1" parent="1">
          <mxGeometry width="50" height="50" relative="1" as="geometry">
            <mxPoint x="430" y="109.65999999999997" as="sourcePoint" />
            <mxPoint x="500" y="109.65999999999997" as="targetPoint" />
          </mxGeometry>
        </mxCell>
        <mxCell id="h8jRNUJWw59du8lOgMdZ-6" value="注册完毕，记录服务名，版本号，METHOD。建立凭证" style="rounded=0;whiteSpace=wrap;html=1;" vertex="1" parent="1">
          <mxGeometry x="500" y="80" width="120" height="60" as="geometry" />
        </mxCell>
        <mxCell id="h8jRNUJWw59du8lOgMdZ-8" value="" style="shape=flexArrow;endArrow=classic;html=1;" edge="1" parent="1">
          <mxGeometry width="50" height="50" relative="1" as="geometry">
            <mxPoint x="620" y="109.65999999999997" as="sourcePoint" />
            <mxPoint x="690" y="109.65999999999997" as="targetPoint" />
          </mxGeometry>
        </mxCell>
        <mxCell id="h8jRNUJWw59du8lOgMdZ-9" value="获得AK,SK。订购服务" style="rounded=0;whiteSpace=wrap;html=1;" vertex="1" parent="1">
          <mxGeometry x="120" y="180" width="120" height="60" as="geometry" />
        </mxCell>
        <mxCell id="h8jRNUJWw59du8lOgMdZ-10" value="" style="shape=flexArrow;endArrow=classic;html=1;" edge="1" parent="1">
          <mxGeometry width="50" height="50" relative="1" as="geometry">
            <mxPoint x="240" y="209.65999999999997" as="sourcePoint" />
            <mxPoint x="310" y="209.65999999999997" as="targetPoint" />
          </mxGeometry>
        </mxCell>
        <mxCell id="h8jRNUJWw59du8lOgMdZ-11" value="在订购审批后，选择审批通过" style="rounded=0;whiteSpace=wrap;html=1;" vertex="1" parent="1">
          <mxGeometry x="310" y="180" width="120" height="60" as="geometry" />
        </mxCell>
        <mxCell id="h8jRNUJWw59du8lOgMdZ-12" value="" style="shape=flexArrow;endArrow=classic;html=1;" edge="1" parent="1">
          <mxGeometry width="50" height="50" relative="1" as="geometry">
            <mxPoint x="430" y="209.65999999999997" as="sourcePoint" />
            <mxPoint x="500" y="209.65999999999997" as="targetPoint" />
          </mxGeometry>
        </mxCell>
        <mxCell id="h8jRNUJWw59du8lOgMdZ-13" value="进入消息系统&amp;gt;渠道号管理" style="rounded=0;whiteSpace=wrap;html=1;" vertex="1" parent="1">
          <mxGeometry x="500" y="180" width="120" height="60" as="geometry" />
        </mxCell>
        <mxCell id="h8jRNUJWw59du8lOgMdZ-14" value="" style="shape=flexArrow;endArrow=classic;html=1;" edge="1" parent="1">
          <mxGeometry width="50" height="50" relative="1" as="geometry">
            <mxPoint x="620" y="209.65999999999997" as="sourcePoint" />
            <mxPoint x="690" y="209.65999999999997" as="targetPoint" />
          </mxGeometry>
        </mxCell>
        <mxCell id="h8jRNUJWw59du8lOgMdZ-15" value="Idaas数据同步" style="rounded=0;whiteSpace=wrap;html=1;" vertex="1" parent="1">
          <mxGeometry x="120" y="280" width="120" height="60" as="geometry" />
        </mxCell>
        <mxCell id="h8jRNUJWw59du8lOgMdZ-16" value="" style="shape=flexArrow;endArrow=classic;html=1;" edge="1" parent="1">
          <mxGeometry width="50" height="50" relative="1" as="geometry">
            <mxPoint x="240" y="309.65999999999997" as="sourcePoint" />
            <mxPoint x="310" y="309.65999999999997" as="targetPoint" />
          </mxGeometry>
        </mxCell>
        <mxCell id="h8jRNUJWw59du8lOgMdZ-17" value="进入消息系统&amp;gt;渠道列表：注册系统端类型渠道" style="rounded=0;whiteSpace=wrap;html=1;" vertex="1" parent="1">
          <mxGeometry x="310" y="280" width="120" height="60" as="geometry" />
        </mxCell>
        <mxCell id="h8jRNUJWw59du8lOgMdZ-18" value="" style="shape=flexArrow;endArrow=classic;html=1;" edge="1" parent="1">
          <mxGeometry width="50" height="50" relative="1" as="geometry">
            <mxPoint x="430" y="309.65999999999997" as="sourcePoint" />
            <mxPoint x="500" y="309.65999999999997" as="targetPoint" />
          </mxGeometry>
        </mxCell>
        <mxCell id="h8jRNUJWw59du8lOgMdZ-19" value="&lt;font style=&quot;font-size: 6px&quot;&gt;设置如下：&lt;br&gt;1、api名称：服务名称。2、url:csb控制台&lt;br&gt;实例所在的ecs机器的专网或经典网络slb的ip/CSB,形如 http://ip:port/CSB&lt;br&gt;&lt;/font&gt;" style="rounded=0;whiteSpace=wrap;html=1;fontSize=8;" vertex="1" parent="1">
          <mxGeometry x="500" y="280" width="240" height="60" as="geometry" />
        </mxCell>
        <mxCell id="h8jRNUJWw59du8lOgMdZ-20" value="&lt;div style=&quot;text-align: left&quot;&gt;&lt;span style=&quot;font-size: 6px&quot;&gt;3、版本号，4、AK&lt;/span&gt;&lt;/div&gt;&lt;font style=&quot;font-size: 6px&quot;&gt;&lt;div style=&quot;text-align: left&quot;&gt;&lt;span&gt;5、SK，6、METHOD&lt;/span&gt;&lt;/div&gt;&lt;/font&gt;" style="rounded=0;whiteSpace=wrap;html=1;fontSize=8;" vertex="1" parent="1">
          <mxGeometry x="120" y="370" width="120" height="60" as="geometry" />
        </mxCell>
        <mxCell id="h8jRNUJWw59du8lOgMdZ-21" value="" style="shape=flexArrow;endArrow=classic;html=1;" edge="1" parent="1">
          <mxGeometry width="50" height="50" relative="1" as="geometry">
            <mxPoint x="740" y="309.65999999999997" as="sourcePoint" />
            <mxPoint x="810" y="309.65999999999997" as="targetPoint" />
          </mxGeometry>
        </mxCell>
        <mxCell id="h8jRNUJWw59du8lOgMdZ-22" value="" style="shape=flexArrow;endArrow=classic;html=1;" edge="1" parent="1">
          <mxGeometry width="50" height="50" relative="1" as="geometry">
            <mxPoint x="240" y="399.65999999999997" as="sourcePoint" />
            <mxPoint x="310" y="399.65999999999997" as="targetPoint" />
          </mxGeometry>
        </mxCell>
        <mxCell id="h8jRNUJWw59du8lOgMdZ-23" value="进入消息系统&amp;gt;消息源管理：注册消息源" style="rounded=0;whiteSpace=wrap;html=1;" vertex="1" parent="1">
          <mxGeometry x="310" y="370" width="120" height="60" as="geometry" />
        </mxCell>
        <mxCell id="h8jRNUJWw59du8lOgMdZ-24" value="" style="shape=flexArrow;endArrow=classic;html=1;" edge="1" parent="1">
          <mxGeometry width="50" height="50" relative="1" as="geometry">
            <mxPoint x="430" y="399.65999999999997" as="sourcePoint" />
            <mxPoint x="500" y="399.65999999999997" as="targetPoint" />
          </mxGeometry>
        </mxCell>
        <mxCell id="h8jRNUJWw59du8lOgMdZ-25" value="记录消息源id和类型" style="rounded=0;whiteSpace=wrap;html=1;" vertex="1" parent="1">
          <mxGeometry x="500" y="370" width="120" height="60" as="geometry" />
        </mxCell>
        <mxCell id="h8jRNUJWw59du8lOgMdZ-26" value="" style="shape=flexArrow;endArrow=classic;html=1;" edge="1" parent="1">
          <mxGeometry width="50" height="50" relative="1" as="geometry">
            <mxPoint x="620" y="399.65999999999997" as="sourcePoint" />
            <mxPoint x="690" y="399.65999999999997" as="targetPoint" />
          </mxGeometry>
        </mxCell>
        <mxCell id="h8jRNUJWw59du8lOgMdZ-27" value="&lt;div style=&quot;text-align: left&quot;&gt;&lt;span style=&quot;font-size: 6px&quot;&gt;使用HttpCaller发起调用&lt;/span&gt;&lt;/div&gt;" style="rounded=0;whiteSpace=wrap;html=1;fontSize=8;" vertex="1" parent="1">
          <mxGeometry x="120" y="460" width="120" height="60" as="geometry" />
        </mxCell>
      </root>
    </mxGraphModel>
  </diagram>
</mxfile>
